<svg width="226" height="39" viewBox="0 0 226 39" fill="none" xmlns="http://www.w3.org/2000/svg">
<g filter="url(#filter0_d_66_9)">
<path d="M4.28467 25V6.81818H9.22075V13.9205H15.7548V6.81818H20.6909V25H15.7548V17.8977H9.22075V25H4.28467ZM27.7577 25H22.431L28.4324 6.81818H35.1796L41.181 25H35.8543L31.877 11.8253H31.735L27.7577 25ZM26.7634 17.8267H36.7776V21.5199H26.7634V17.8267ZM42.9321 25V6.81818H50.7801C52.1296 6.81818 53.3103 7.08452 54.3224 7.61719C55.3345 8.14986 56.1216 8.89856 56.6839 9.86328C57.2462 10.828 57.5273 11.9555 57.5273 13.2457C57.5273 14.5478 57.2373 15.6753 56.6573 16.6282C56.0832 17.5811 55.2753 18.315 54.2336 18.8299C53.1979 19.3448 51.9875 19.6023 50.6026 19.6023H45.9151V15.767H49.6083C50.1883 15.767 50.6825 15.6664 51.0909 15.4652C51.5052 15.258 51.8218 14.9651 52.0408 14.5863C52.2657 14.2075 52.3782 13.7607 52.3782 13.2457C52.3782 12.7249 52.2657 12.281 52.0408 11.9141C51.8218 11.5412 51.5052 11.2571 51.0909 11.0618C50.6825 10.8606 50.1883 10.7599 49.6083 10.7599H47.8682V25H42.9321ZM69.1395 12.5C69.0922 11.9081 68.8702 11.4465 68.4737 11.1151C68.0831 10.7836 67.4882 10.6179 66.6892 10.6179C66.1802 10.6179 65.763 10.68 65.4375 10.8043C65.1179 10.9227 64.8811 11.0855 64.7272 11.2926C64.5733 11.4998 64.4934 11.7365 64.4875 12.0028C64.4757 12.2218 64.5142 12.4201 64.6029 12.5977C64.6976 12.7693 64.8456 12.9261 65.0468 13.0682C65.2481 13.2043 65.5055 13.3286 65.8192 13.4411C66.1329 13.5535 66.5058 13.6541 66.9378 13.7429L68.4293 14.0625C69.4354 14.2756 70.2966 14.5567 71.0127 14.9059C71.7289 15.2551 72.3148 15.6664 72.7706 16.1399C73.2263 16.6075 73.5607 17.1342 73.7737 17.7202C73.9927 18.3061 74.1052 18.9453 74.1111 19.6378C74.1052 20.8333 73.8063 21.8454 73.2144 22.674C72.6226 23.5026 71.7762 24.1329 70.6754 24.565C69.5804 24.997 68.2636 25.2131 66.7247 25.2131C65.1445 25.2131 63.7655 24.9793 62.5877 24.5117C61.4158 24.0442 60.5043 23.325 59.8533 22.3544C59.2082 21.3778 58.8826 20.129 58.8767 18.608H63.5642C63.5938 19.1643 63.7329 19.6319 63.9815 20.0107C64.2301 20.3894 64.5793 20.6765 65.0291 20.8718C65.4848 21.0671 66.0264 21.1648 66.6537 21.1648C67.1805 21.1648 67.6214 21.0997 67.9765 20.9695C68.3316 20.8393 68.6009 20.6587 68.7844 20.4279C68.9679 20.1971 69.0626 19.9337 69.0685 19.6378C69.0626 19.3596 68.9708 19.117 68.7933 18.9098C68.6216 18.6967 68.3376 18.5073 67.941 18.3416C67.5445 18.17 67.0088 18.0102 66.3341 17.8622L64.523 17.4716C62.9132 17.1224 61.6437 16.5394 60.7144 15.7227C59.7911 14.9 59.3325 13.7784 59.3384 12.358C59.3325 11.2038 59.6402 10.1947 60.2617 9.33061C60.889 8.46058 61.7561 7.78291 62.8629 7.29758C63.9756 6.81226 65.251 6.5696 66.6892 6.5696C68.157 6.5696 69.4266 6.81522 70.4978 7.30646C71.5691 7.7977 72.3947 8.49018 72.9747 9.38388C73.5607 10.2717 73.8566 11.3104 73.8625 12.5H69.1395ZM82.2743 0.958806V30.8594H77.4802V0.958806H82.2743ZM95.9217 12.5C95.8744 11.9081 95.6524 11.4465 95.2559 11.1151C94.8653 10.7836 94.2705 10.6179 93.4715 10.6179C92.9625 10.6179 92.5452 10.68 92.2197 10.8043C91.9001 10.9227 91.6633 11.0855 91.5095 11.2926C91.3556 11.4998 91.2757 11.7365 91.2698 12.0028C91.2579 12.2218 91.2964 12.4201 91.3852 12.5977C91.4799 12.7693 91.6278 12.9261 91.8291 13.0682C92.0303 13.2043 92.2877 13.3286 92.6014 13.4411C92.9151 13.5535 93.288 13.6541 93.72 13.7429L95.2115 14.0625C96.2177 14.2756 97.0788 14.5567 97.795 14.9059C98.5111 15.2551 99.097 15.6664 99.5528 16.1399C100.009 16.6075 100.343 17.1342 100.556 17.7202C100.775 18.3061 100.887 18.9453 100.893 19.6378C100.887 20.8333 100.589 21.8454 99.9967 22.674C99.4048 23.5026 98.5585 24.1329 97.4576 24.565C96.3627 24.997 95.0458 25.2131 93.507 25.2131C91.9267 25.2131 90.5477 24.9793 89.3699 24.5117C88.198 24.0442 87.2866 23.325 86.6355 22.3544C85.9904 21.3778 85.6649 20.129 85.659 18.608H90.3465C90.3761 19.1643 90.5151 19.6319 90.7637 20.0107C91.0123 20.3894 91.3615 20.6765 91.8113 20.8718C92.267 21.0671 92.8086 21.1648 93.4359 21.1648C93.9627 21.1648 94.4036 21.0997 94.7587 20.9695C95.1139 20.8393 95.3832 20.6587 95.5666 20.4279C95.7501 20.1971 95.8448 19.9337 95.8507 19.6378C95.8448 19.3596 95.7531 19.117 95.5755 18.9098C95.4039 18.6967 95.1198 18.5073 94.7232 18.3416C94.3267 18.17 93.7911 18.0102 93.1163 17.8622L91.3053 17.4716C89.6954 17.1224 88.4259 16.5394 87.4967 15.7227C86.5734 14.9 86.1147 13.7784 86.1206 12.358C86.1147 11.2038 86.4225 10.1947 87.0439 9.33061C87.6713 8.46058 88.5383 7.78291 89.6451 7.29758C90.7578 6.81226 92.0332 6.5696 93.4715 6.5696C94.9393 6.5696 96.2088 6.81522 97.2801 7.30646C98.3513 7.7977 99.177 8.49018 99.757 9.38388C100.343 10.2717 100.639 11.3104 100.645 12.5H95.9217ZM118.503 6.81818V25H114.383L107.814 15.4474H107.707V25H102.771V6.81818H106.961L113.424 16.3352H113.566V6.81818H118.503ZM120.837 25V6.81818H133.941V10.7955H125.773V13.9205H133.266V17.8977H125.773V21.0227H133.906V25H120.837ZM141.112 25H135.785L141.787 6.81818H148.534L154.535 25H149.209L145.231 11.8253H145.089L141.112 25ZM140.118 17.8267H150.132V21.5199H140.118V17.8267ZM156.287 25V6.81818H161.223V14.169H161.471L166.94 6.81818H172.693L166.549 14.9148L172.835 25H166.94L162.856 18.1818L161.223 20.3125V25H156.287ZM174.158 25V6.81818H187.261V10.7955H179.094V13.9205H186.587V17.8977H179.094V21.0227H187.226V25H174.158ZM189.709 25V6.81818H197.557C198.907 6.81818 200.088 7.0638 201.1 7.55504C202.112 8.04628 202.899 8.75355 203.461 9.67685C204.024 10.6001 204.305 11.7069 204.305 12.9972C204.305 14.2992 204.015 15.3971 203.435 16.2908C202.861 17.1845 202.053 17.8593 201.011 18.315C199.975 18.7707 198.765 18.9986 197.38 18.9986H192.692V15.1634H196.386C196.966 15.1634 197.46 15.0923 197.868 14.9503C198.283 14.8023 198.599 14.5685 198.818 14.2489C199.043 13.9293 199.155 13.5121 199.155 12.9972C199.155 12.4763 199.043 12.0531 198.818 11.7276C198.599 11.3962 198.283 11.1535 197.868 10.9996C197.46 10.8398 196.966 10.7599 196.386 10.7599H194.646V25H189.709ZM200.363 16.6548L204.908 25H199.546L195.107 16.6548H200.363ZM216.21 12.5C216.162 11.9081 215.941 11.4465 215.544 11.1151C215.153 10.7836 214.559 10.6179 213.76 10.6179C213.251 10.6179 212.833 10.68 212.508 10.8043C212.188 10.9227 211.951 11.0855 211.798 11.2926C211.644 11.4998 211.564 11.7365 211.558 12.0028C211.546 12.2218 211.584 12.4201 211.673 12.5977C211.768 12.7693 211.916 12.9261 212.117 13.0682C212.318 13.2043 212.576 13.3286 212.89 13.4411C213.203 13.5535 213.576 13.6541 214.008 13.7429L215.5 14.0625C216.506 14.2756 217.367 14.5567 218.083 14.9059C218.799 15.2551 219.385 15.6664 219.841 16.1399C220.297 16.6075 220.631 17.1342 220.844 17.7202C221.063 18.3061 221.176 18.9453 221.181 19.6378C221.176 20.8333 220.877 21.8454 220.285 22.674C219.693 23.5026 218.847 24.1329 217.746 24.565C216.651 24.997 215.334 25.2131 213.795 25.2131C212.215 25.2131 210.836 24.9793 209.658 24.5117C208.486 24.0442 207.575 23.325 206.924 22.3544C206.278 21.3778 205.953 20.129 205.947 18.608H210.635C210.664 19.1643 210.803 19.6319 211.052 20.0107C211.3 20.3894 211.65 20.6765 212.099 20.8718C212.555 21.0671 213.097 21.1648 213.724 21.1648C214.251 21.1648 214.692 21.0997 215.047 20.9695C215.402 20.8393 215.671 20.6587 215.855 20.4279C216.038 20.1971 216.133 19.9337 216.139 19.6378C216.133 19.3596 216.041 19.117 215.864 18.9098C215.692 18.6967 215.408 18.5073 215.011 18.3416C214.615 18.17 214.079 18.0102 213.404 17.8622L211.593 17.4716C209.984 17.1224 208.714 16.5394 207.785 15.7227C206.861 14.9 206.403 13.7784 206.409 12.358C206.403 11.2038 206.711 10.1947 207.332 9.33061C207.959 8.46058 208.826 7.78291 209.933 7.29758C211.046 6.81226 212.321 6.5696 213.76 6.5696C215.227 6.5696 216.497 6.81522 217.568 7.30646C218.639 7.7977 219.465 8.49018 220.045 9.38388C220.631 10.2717 220.927 11.3104 220.933 12.5H216.21Z" fill="#003294"/>
</g>
<defs>
<filter id="filter0_d_66_9" x="0.284668" y="0.958801" width="224.897" height="37.9006" filterUnits="userSpaceOnUse" color-interpolation-filters="sRGB">
<feFlood flood-opacity="0" result="BackgroundImageFix"/>
<feColorMatrix in="SourceAlpha" type="matrix" values="0 0 0 0 0 0 0 0 0 0 0 0 0 0 0 0 0 0 127 0" result="hardAlpha"/>
<feOffset dy="4"/>
<feGaussianBlur stdDeviation="2"/>
<feComposite in2="hardAlpha" operator="out"/>
<feColorMatrix type="matrix" values="0 0 0 0 0 0 0 0 0 0 0 0 0 0 0 0 0 0 0.25 0"/>
<feBlend mode="normal" in2="BackgroundImageFix" result="effect1_dropShadow_66_9"/>
<feBlend mode="normal" in="SourceGraphic" in2="effect1_dropShadow_66_9" result="shape"/>
</filter>
</defs>
</svg>
